<?xml version="1.0" encoding="UTF-8"?>
<svg width="7px" height="7px" viewBox="0 0 7 7" version="1.1" xmlns="http://www.w3.org/2000/svg" xmlns:xlink="http://www.w3.org/1999/xlink">
    <!-- Generator: Sketch 47 (45396) - http://www.bohemiancoding.com/sketch -->
    <title>ios_close_small_ico</title>
    <desc>Created with Sketch.</desc>
    <defs></defs>
    <g id="登录" stroke="none" stroke-width="1" fill="none" fill-rule="evenodd">
        <g id="D3-登录(无效信息)" transform="translate(-352.000000, -77.000000)" fill="#222222">
            <g id="Group-2" transform="translate(0.000000, 64.000000)">
                <g id="ios_close_small_ico" transform="translate(352.000000, 13.000000)">
                    <path d="M4.20725,3.50025 L6.85325,0.85425 C7.04925,0.65825 7.04925,0.34225 6.85325,0.14625 C6.65825,-0.04875 6.34225,-0.04875 6.14625,0.14625 L3.50025,2.79325 L0.85325,0.14625 C0.65825,-0.04875 0.34225,-0.04875 0.14625,0.14625 C-0.04875,0.34225 -0.04875,0.65825 0.14625,0.85425 L2.79325,3.50025 L0.14625,6.14625 C-0.04875,6.34225 -0.04875,6.65825 0.14625,6.85425 C0.24425,6.95125 0.37225,7.00025 0.50025,7.00025 C0.62825,7.00025 0.75625,6.95125 0.85325,6.85425 L3.50025,4.20725 L6.14625,6.85425 C6.24425,6.95125 6.37225,7.00025 6.50025,7.00025 C6.62825,7.00025 6.75625,6.95125 6.85325,6.85425 C7.04925,6.65825 7.04925,6.34225 6.85325,6.14625 L4.20725,3.50025 Z" id="Fill-3"></path>
                </g>
            </g>
        </g>
    </g>
</svg>