<?xml version="1.0" encoding="UTF-8"?>
<svg width="26px" height="26px" viewBox="0 0 26 26" version="1.1" xmlns="http://www.w3.org/2000/svg" xmlns:xlink="http://www.w3.org/1999/xlink">
    <!-- Generator: Sketch 47 (45396) - http://www.bohemiancoding.com/sketch -->
    <title>ICONS / Tick_circle</title>
    <desc>Created with Sketch.</desc>
    <defs></defs>
    <g id="登录" stroke="none" stroke-width="1" fill="none" fill-rule="evenodd">
        <g id="D3-登录(无效信息)" transform="translate(-323.000000, -98.000000)">
            <g id="INPUT-FIELD-/-Moblie" transform="translate(16.000000, 88.000000)">
                <g id="ICONS-/-Tick_circle" transform="translate(305.000000, 8.000000)">
                    <polygon id="Fill-1" fill="#FFFFFF" opacity="0" points="30 30 0 30 0 0 30 0"></polygon>
                    <path d="M12.7175,17.7974 L10.0565,15.3034 C9.7665,15.0294 9.3015,15.0404 9.0195,15.3284 C8.7375,15.6174 8.7445,16.0754 9.0355,16.3504 L12.0405,19.1674 C12.0565,19.1824 12.0775,19.1874 12.0945,19.2004 C12.1255,19.2474 12.1505,19.2974 12.1955,19.3384 C12.4895,19.6084 12.9605,19.6014 13.2415,19.3224 L20.9845,11.6584 C21.2645,11.3804 21.2535,10.9334 20.9575,10.6624 C20.6625,10.3914 20.1925,10.3984 19.9115,10.6774 L12.7175,17.7974 Z" id="Fill-3" fill="#3EB46E"></path>
                    <path d="M15,26.0294 C8.918,26.0294 3.971,21.0814 3.971,15.0004 C3.971,8.9184 8.918,3.9704 15,3.9704 C21.082,3.9704 26.029,8.9184 26.029,15.0004 C26.029,21.0814 21.082,26.0294 15,26.0294 M15,2.5004 C8.108,2.5004 2.5,8.1074 2.5,15.0004 C2.5,21.8924 8.108,27.5004 15,27.5004 C21.892,27.5004 27.5,21.8924 27.5,15.0004 C27.5,8.1074 21.892,2.5004 15,2.5004" id="Fill-5" fill="#1CD467"></path>
                </g>
            </g>
        </g>
    </g>
</svg>