<?xml version="1.0" encoding="UTF-8"?>
<svg width="22px" height="24px" viewBox="0 0 22 24" version="1.1" xmlns="http://www.w3.org/2000/svg" xmlns:xlink="http://www.w3.org/1999/xlink">
    <!-- Generator: Sketch 47 (45396) - http://www.bohemiancoding.com/sketch -->
    <title>ICON/Telephone</title>
    <desc>Created with Sketch.</desc>
    <defs></defs>
    <g id="登录" stroke="none" stroke-width="1" fill="none" fill-rule="evenodd">
        <g id="C2-购物袋全部" transform="translate(-83.000000, -934.000000)">
            <g id="help" transform="translate(0.000000, 739.000000)">
                <g id="CELL-/-Contact-(3-icons)" transform="translate(0.000000, 183.000000)">
                    <g id="ICON/Telephone" transform="translate(79.000000, 9.000000)">
                        <polygon id="Fill-1" fill="#FFFFFF" opacity="0" points="30 30 0 30 0 0 30 0"></polygon>
                        <path d="M25.5065338,21.5736281 L25.3833564,21.30719 C25.0138242,20.435576 20.4669712,19.0993689 20.0907446,19.0766078 L19.7881566,19.0993689 C19.225825,19.214513 18.6139546,19.7072226 17.4370748,20.7435195 C17.2081255,20.9456911 16.8693876,21.004602 16.6029495,20.8546469 C15.0471653,19.9857107 13.1285433,18.2398048 12.1792739,17.1686969 C11.1603826,16.0185948 9.90986409,14.1575449 9.3073659,12.6285384 C9.19623846,12.3473725 9.29531594,12.0220235 9.5202486,11.8198519 C10.8805556,10.6081611 11.4589539,10.0230684 11.4977815,9.38040368 C11.5218815,9.00551592 10.7399727,4.33280775 9.92057517,3.8601814 L9.67288147,3.70487075 C9.15071638,3.36747177 8.35943542,2.85869552 7.48112695,3.03676721 C7.26690538,3.08095041 7.06205599,3.16396127 6.86791769,3.28446091 C6.27746946,3.65533201 4.83415158,4.65815678 4.178098,5.96624729 C3.771077,6.78162817 3.58764978,14.2204725 9.16142745,20.5078758 C14.6695998,26.7243182 21.4644404,26.9947729 22.4846707,26.7859069 L22.5127873,26.7818902 L22.6024926,26.7551125 C23.9802051,26.2597251 25.1490516,24.947618 25.5882058,24.4053696 C26.3968923,23.4025448 25.818494,22.2122762 25.5065338,21.5736281" id="Fill-3" fill="#222222"></path>
                    </g>
                </g>
            </g>
        </g>
    </g>
</svg>