<?xml version="1.0" encoding="UTF-8"?>
<svg width="26px" height="16px" viewBox="0 0 26 16" version="1.1" xmlns="http://www.w3.org/2000/svg" xmlns:xlink="http://www.w3.org/1999/xlink">
    <!-- Generator: Sketch 47 (45396) - http://www.bohemiancoding.com/sketch -->
    <title>ios_eye_active_ico</title>
    <desc>Created with Sketch.</desc>
    <defs>
        <polyline id="path-1" points="3 8 28.9777673 8 28.9777673 23.185698 3 23.185698"></polyline>
    </defs>
    <g id="登录" stroke="none" stroke-width="1" fill="none" fill-rule="evenodd">
        <g id="D4-登录(报错提示)" transform="translate(-320.000000, -176.000000)">
            <g id="Missing-field---Alert" transform="translate(16.000000, 160.000000)">
                <g id="ios_eye_active_ico" transform="translate(301.000000, 8.000000)">
                    <rect id="Rectangle-14" x="0" y="0" width="32" height="32"></rect>
                    <mask id="mask-2" fill="white">
                        <use xlink:href="#path-1"></use>
                    </mask>
                    <g id="Clip-2"></g>
                    <path d="M28.6414255,14.6611042 C28.5483561,14.5680348 28.4522092,14.4397328 28.3910296,14.3464512 C26.3457316,12.1118838 24.0180418,10.4135001 21.5007643,9.24801035 C17.9754827,7.64269607 14.3891276,7.58156953 10.896001,9.09068382 C8.22155612,10.2240716 5.7975602,11.9866593 3.56585816,14.4075777 C2.81138061,15.1944226 2.81138061,15.9810022 3.56585816,16.7995246 C5.29634388,18.7194389 7.3416949,20.2926512 9.66954388,21.5192675 C10.5202214,21.9593042 11.3679276,22.3379491 12.2187643,22.588345 C13.4773235,22.9672552 14.7679847,23.1857083 16.0876704,23.1857083 C16.4023235,23.1857083 16.7169765,23.1857083 17.0315765,23.1536063 C17.5968378,23.0895614 18.2260908,23.0283818 18.8263724,22.8710552 C22.4127276,21.9593042 25.655299,19.9139532 28.6735806,16.5781532 C29.0843806,16.012892 29.0843806,15.2584675 28.6414255,14.6611042 M27.7296745,15.7944389 C24.865801,18.9410226 21.844601,20.8928797 18.4795643,21.7406389 C17.9435929,21.8660226 17.3462296,21.9300675 16.842148,21.991194 C15.3943724,22.0844757 13.917148,21.9271491 12.5012622,21.4873246 C11.7146827,21.2367695 10.9281031,20.9221165 10.1734133,20.4791614 C7.97100102,19.3138838 6.01893163,17.8047695 4.38459286,15.9810022 C4.03783776,15.602092 4.03783776,15.5090226 4.38459286,15.1622675 C6.52301327,12.8665206 8.78947041,11.1972144 11.306801,10.1278716 C12.8480704,9.46646341 14.4212296,9.11992055 15.9622867,9.11992055 C17.6287276,9.11992055 19.298299,9.49861851 20.9647398,10.2851981 C23.3566867,11.3864308 25.559099,13.0238471 27.5083031,15.1301655 C27.572348,15.1944226 27.6334745,15.2874389 27.6975194,15.3516961 C27.8258214,15.5117287 27.8548459,15.6690552 27.7296745,15.7944389 M15.8982418,11.2641246 C13.4744051,11.2641246 11.4933112,13.2452185 11.4933112,15.6690552 C11.4933112,18.0930512 13.4744051,20.074145 15.8982418,20.074145 C18.3222908,20.074145 20.3033847,18.0930512 20.3033847,15.6690552 C20.3354867,13.2452185 18.3543929,11.2641246 15.8982418,11.2641246 M15.8982418,18.9408104 C14.1037112,18.9408104 12.6585888,17.4928226 12.6585888,15.7011573 C12.6585888,13.909545 14.1065765,12.4586389 15.8982418,12.4586389 C17.6901194,12.4586389 19.1381071,13.9066267 19.1381071,15.698292 C19.1729153,17.4608797 17.6929847,18.9408104 15.8982418,18.9408104" id="Fill-1" fill="#2D2D2D" mask="url(#mask-2)"></path>
                </g>
            </g>
        </g>
    </g>
</svg>