<?xml version="1.0" encoding="UTF-8"?>
<svg width="25px" height="25px" viewBox="0 0 25 25" version="1.1" xmlns="http://www.w3.org/2000/svg" xmlns:xlink="http://www.w3.org/1999/xlink">
    <!-- Generator: Sketch 47 (45396) - http://www.bohemiancoding.com/sketch -->
    <title>ICONS / Pencil</title>
    <desc>Created with Sketch.</desc>
    <defs></defs>
    <g id="登录" stroke="none" stroke-width="1" fill="none" fill-rule="evenodd">
        <g id="D4-登录(报错提示)" transform="translate(-320.000000, -99.000000)" fill="#FD4F57">
            <g id="Missing-field---Alert" transform="translate(16.000000, 88.000000)">
                <g id="ICONS-/-Pencil" transform="translate(304.000000, 11.000000)">
                    <path d="M12.5,23.48 C6.445,23.48 1.52,18.555 1.52,12.5 C1.52,6.445 6.445,1.52 12.5,1.52 C18.555,1.52 23.48,6.445 23.48,12.5 C23.48,18.555 18.555,23.48 12.5,23.48 M12.5,0 C5.6075,0 0,5.6075 0,12.5 C0,19.3925 5.6075,25 12.5,25 C19.3925,25 25,19.3925 25,12.5 C25,5.6075 19.3925,0 12.5,0" id="Fill-1"></path>
                    <path d="M13.1325,13.85625 L11.70625,13.85625 L11.08875,6 L13.78,6 L13.1325,13.85625 Z M12.4325,18.14625 C11.56625,18.14625 11.0175,17.6 11,16.8725 C11,16.1775 11.56625,15.615 12.45125,15.615 C13.3,15.615 13.8675,16.1775 13.85,16.8725 C13.8675,17.6 13.3,18.14625 12.4325,18.14625 L12.4325,18.14625 Z" id="Fill-5"></path>
                </g>
            </g>
        </g>
    </g>
</svg>