<?xml version="1.0" encoding="UTF-8"?>
<svg width="16px" height="18px" viewBox="0 0 16 18" version="1.1" xmlns="http://www.w3.org/2000/svg" xmlns:xlink="http://www.w3.org/1999/xlink">
    <!-- Generator: Sketch 46.1 (44463) - http://www.bohemiancoding.com/sketch -->
    <title>Group 2</title>
    <desc>Created with Sketch.</desc>
    <defs></defs>
    <g id="Design-Kit-v1.0" stroke="none" stroke-width="1" fill="none" fill-rule="evenodd">
        <g id="PLP" transform="translate(-1351.000000, -2007.000000)" fill="#222222">
            <g id="Category-PLP" transform="translate(1137.000000, 1144.000000)">
                <g id="Bottom-nav---Home-02" transform="translate(0.000000, 858.000000)">
                    <g id="ICON-Shopping_bag" transform="translate(214.000000, 2.000000)">
                        <g id="Mo_Bag_ico" transform="translate(0.000000, 3.000000)">
                            <g id="Group-2">
                                <path d="M15.4945951,5 L0.499825647,5 C0.499825647,5 0,5 0,5.48880008 L0,16.0794685 C0,16.1446419 0,16.2098152 0.0333217098,16.2749885 C0.0666434196,16.3401619 0.0999651294,16.3727486 0.133286839,16.4379219 C0.166608549,16.4705086 0.233251969,16.5030953 0.299895388,16.5356819 C0.366538808,16.5682686 0.433182228,16.5682686 0.499825647,16.5682686 L4.69836108,17.220002 L4.69836108,17.220002 L11.362703,17.220002 L11.362703,17.220002 L15.4945951,16.6008553 C15.5612385,16.6008553 15.6278819,16.6008553 15.6945253,16.5682686 C15.7611687,16.5356819 15.7944905,16.5030953 15.8611339,16.4705086 C15.8944556,16.4379219 15.9277773,16.3727486 15.961099,16.3075752 C15.9944207,16.2424019 15.9944207,16.1772285 15.9944207,16.1120552 L15.9944207,5.45621341 C15.9944207,5 15.4945951,5 15.4945951,5 L15.4945951,5 Z M4.99825647,6.46640024 C4.73168279,6.46640024 4.49843083,6.23829354 4.49843083,5.97760016 C4.49843083,5.71690679 4.73168279,5.48880008 4.99825647,5.48880008 C5.26483015,5.48880008 5.49808212,5.71690679 5.49808212,5.97760016 C5.49808212,6.23829354 5.26483015,6.46640024 4.99825647,6.46640024 L4.99825647,6.46640024 Z M10.9961642,6.46640024 C10.7295906,6.46640024 10.4963386,6.23829354 10.4963386,5.97760016 C10.4963386,5.71690679 10.7295906,5.48880008 10.9961642,5.48880008 C11.2627379,5.48880008 11.4959899,5.71690679 11.4959899,5.97760016 C11.4959899,6.23829354 11.2627379,6.46640024 10.9961642,6.46640024 L10.9961642,6.46640024 Z" id="Shape-Copy-2"></path>
                                <path d="M6.02859933,5.39112614 C6.02859933,2.71963035 6.57823933,1.98385082 8.01325355,1.98385082 C9.5154399,1.98385082 10.0248043,2.67707952 9.99795557,5.38149625 L12.0264593,5.40075603 C12.0631418,1.70580277 10.8097673,0 8.01325355,0 C5.29562451,0 4,1.73439705 4,5.39112614 L6.02859933,5.39112614 L6.02859933,5.39112614 Z" id="Shape-Copy" fill-rule="nonzero"></path>
                            </g>
                        </g>
                    </g>
                </g>
            </g>
        </g>
    </g>
</svg>