<?xml version="1.0" encoding="UTF-8"?>
<svg width="16px" height="17px" viewBox="0 0 16 17" version="1.1" xmlns="http://www.w3.org/2000/svg" xmlns:xlink="http://www.w3.org/1999/xlink">
    <!-- Generator: Sketch 47 (45396) - http://www.bohemiancoding.com/sketch -->
    <title>ICONS / Close-dark</title>
    <desc>Created with Sketch.</desc>
    <defs></defs>
    <g id="登录" stroke="none" stroke-width="1" fill="none" fill-rule="evenodd">
        <g id="C2-购物袋全部" transform="translate(-344.000000, -141.000000)">
            <g id="Checkout-2-Products" transform="translate(0.000000, 64.000000)">
                <g id="Product-01" transform="translate(0.000000, 62.000000)">
                    <g id="ICONS-/-Close-dark" transform="translate(344.000000, 15.732346)">
                        <path d="M16,7.86617287 C16,12.2102668 12.418,15.7323457 8,15.7323457 C3.582,15.7323457 0,12.2102668 0,7.86617287 C0,3.5220789 3.582,0 8,0 C12.418,0 16,3.5220789 16,7.86617287" id="Fill-1" fill="#F0F0F0"></path>
                        <path d="M8.707,7.86617287 L11.353,5.26443619 C11.549,5.07171496 11.549,4.76100113 11.353,4.56827989 C11.158,4.37654193 10.842,4.37654193 10.646,4.56827989 L8,7.17099984 L5.353,4.56827989 C5.158,4.37654193 4.842,4.37654193 4.646,4.56827989 C4.451,4.76100113 4.451,5.07171496 4.646,5.26443619 L7.293,7.86617287 L4.646,10.4679095 C4.451,10.6606308 4.451,10.9713446 4.646,11.1640658 C4.744,11.2594432 4.872,11.3076235 5,11.3076235 C5.128,11.3076235 5.256,11.2594432 5.353,11.1640658 L8,8.5613459 L10.646,11.1640658 C10.744,11.2594432 10.872,11.3076235 11,11.3076235 C11.128,11.3076235 11.256,11.2594432 11.353,11.1640658 C11.549,10.9713446 11.549,10.6606308 11.353,10.4679095 L8.707,7.86617287 Z" id="Fill-3" fill="#222222"></path>
                    </g>
                </g>
            </g>
        </g>
    </g>
</svg>