<?xml version="1.0" encoding="UTF-8"?>
<svg width="26px" height="21px" viewBox="0 0 26 21" version="1.1" xmlns="http://www.w3.org/2000/svg" xmlns:xlink="http://www.w3.org/1999/xlink">
    <!-- Generator: Sketch 47 (45396) - http://www.bohemiancoding.com/sketch -->
    <title>ICONS / CHAT</title>
    <desc>Created with Sketch.</desc>
    <defs>
        <polygon id="path-1" points="7.06073803e-06 0.0291624828 17.8181325 0.0291624828 17.8181325 15.9770711 7.06073803e-06 15.9770711"></polygon>
        <polygon id="path-3" points="15.1025656 0.00927012414 15.1025656 13.5558516 0.025821119 13.5558516 0.025821119 0.00927012414"></polygon>
    </defs>
    <g id="登录" stroke="none" stroke-width="1" fill="none" fill-rule="evenodd">
        <g id="C2-购物袋全部" transform="translate(-272.000000, -935.000000)">
            <g id="help" transform="translate(0.000000, 739.000000)">
                <g id="CELL-/-Contact-(3-icons)" transform="translate(0.000000, 183.000000)">
                    <g id="ICONS-/-CHAT" transform="translate(270.000000, 8.000000)">
                        <polygon id="Fill-1" fill="#FFFFFF" opacity="0" points="30 30 0 30 0 0 30 0"></polygon>
                        <g id="Page-1" transform="translate(2.000000, 5.000000)">
                            <g id="Group-3" transform="translate(0.000000, 0.005596)">
                                <mask id="mask-2" fill="white">
                                    <use xlink:href="#path-1"></use>
                                </mask>
                                <g id="Clip-2"></g>
                                <path d="M5.98814838,5.92459994 C5.32337989,5.92459994 4.65225674,5.48622422 4.65225674,4.83178891 C4.65225674,4.17453815 5.3234152,3.74214091 5.98814838,3.74214091 C6.65284626,3.74214091 7.0952721,4.17453815 7.0952721,4.83178891 C7.0952721,5.48622422 6.65284626,5.92459994 5.98814838,5.92459994 M12.1949608,3.74210615 C12.8626241,3.74210615 13.3049794,4.17453815 13.3049794,4.83175415 C13.3049794,5.48622422 12.8625888,5.92456519 12.1949608,5.92456519 C11.5302276,5.92456519 10.8634115,5.48618946 10.8634115,4.83175415 C10.8634468,4.17453815 11.5302629,3.74210615 12.1949608,3.74210615 M16.9640657,6.10958532 C17.2516495,6.10958532 17.5356324,6.13037098 17.8181325,6.16144519 C17.0508068,2.64296905 13.2304533,0.029155531 8.86928253,0.029155531 C3.99401944,0.029155531 7.06073803e-06,3.30091498 7.06073803e-06,7.45547388 C7.06073803e-06,9.85357539 1.32869674,11.8228598 3.54944007,13.3501884 L2.66239955,15.9770711 L5.76220476,14.4462319 C6.87225869,14.6625696 7.7620882,14.8845729 8.86924723,14.8845729 C9.14744031,14.8845729 9.42351517,14.8711561 9.6974365,14.8499881 C9.52388356,14.2661475 9.42351517,13.6547782 9.42351517,13.0205028 C9.42358577,9.20550091 12.7507114,6.10958532 16.9640657,6.10958532" id="Fill-1" fill="#212121" mask="url(#mask-2)"></path>
                            </g>
                            <g id="Group-6" transform="translate(9.955641, 6.574975)">
                                <mask id="mask-4" fill="white">
                                    <use xlink:href="#path-3"></use>
                                </mask>
                                <g id="Clip-5"></g>
                                <path d="M10.002185,5.25347702 C9.56328954,5.25347702 9.1209343,4.82111454 9.1209343,4.37985385 C9.1209343,3.94467592 9.56332484,3.50657826 10.002185,3.50657826 C10.6668829,3.50657826 11.112133,3.94471068 11.112133,4.37985385 C11.112133,4.82111454 10.6668829,5.25347702 10.002185,5.25347702 M5.12402702,5.25347702 C4.68234255,5.25347702 4.23635103,4.82111454 4.23635103,4.37985385 C4.23635103,3.94467592 4.68234255,3.50657826 5.12402702,3.50657826 C5.7944794,3.50657826 6.23408095,3.94471068 6.23408095,4.37985385 C6.23408095,4.82111454 5.7944794,5.25347702 5.12402702,5.25347702 M15.1025797,6.34600999 C15.1025797,2.85499316 11.5546648,0.00927012414 7.5692312,0.00927012414 C3.34938112,0.00927012414 0.025821119,2.85499316 0.025821119,6.34600999 C0.025821119,9.84324861 3.34938112,12.6825761 7.5692312,12.6825761 C8.45260014,12.6825761 9.34394771,12.4629711 10.2309176,12.2442003 L12.663236,13.5558516 L11.996314,11.373775 C13.7768203,10.0588911 15.1025797,8.31519012 15.1025797,6.34600999" id="Fill-4" fill="#212121" mask="url(#mask-4)"></path>
                            </g>
                        </g>
                    </g>
                </g>
            </g>
        </g>
    </g>
</svg>