<?xml version="1.0" encoding="UTF-8"?>
<svg width="26px" height="16px" viewBox="0 0 26 16" version="1.1" xmlns="http://www.w3.org/2000/svg" xmlns:xlink="http://www.w3.org/1999/xlink">
    <!-- Generator: Sketch 47 (45396) - http://www.bohemiancoding.com/sketch -->
    <title>ios_eye_active_ico2</title>
    <desc>Created with Sketch.</desc>
    <defs></defs>
    <g id="登录" stroke="none" stroke-width="1" fill="none" fill-rule="evenodd">
        <g id="D4-登录(报错提示)" transform="translate(-320.000000, -176.000000)" fill="#FFFFFF">
            <g id="Missing-field---Alert" transform="translate(16.000000, 160.000000)">
                <g id="ios_eye_active_ico2" transform="translate(304.000000, 16.000000)">
                    <path d="M25.6414255,6.66110423 C25.5483561,6.56803484 25.4522092,6.4397328 25.3910296,6.34645117 C23.3457316,4.11188382 21.0180418,2.41350015 18.5007643,1.24801035 C14.9754827,-0.357303935 11.3891276,-0.418430465 7.89600102,1.09068382 C5.22155612,2.22407158 2.7975602,3.98665933 0.565858163,6.4075777 C-0.188619388,7.1944226 -0.188619388,7.98100219 0.565858163,8.79952464 C2.29634388,10.7194389 4.3416949,12.2926512 6.66954388,13.5192675 C7.52022143,13.9593042 8.36792755,14.3379491 9.21876429,14.588345 C10.4773235,14.9672552 11.7679847,15.1857083 13.0876704,15.1857083 C13.4023235,15.1857083 13.7169765,15.1857083 14.0315765,15.1536063 C14.5968378,15.0895614 15.2260908,15.0283818 15.8263724,14.8710552 C19.4127276,13.9593042 22.655299,11.9139532 25.6735806,8.57815321 C26.0843806,8.01289198 26.0843806,7.25846749 25.6414255,6.66110423 M24.7296745,7.79443892 C21.865801,10.9410226 18.844601,12.8928797 15.4795643,13.7406389 C14.9435929,13.8660226 14.3462296,13.9300675 13.842148,13.991194 C12.3943724,14.0844757 10.917148,13.9271491 9.50126224,13.4873246 C8.71468265,13.2367695 7.92810306,12.9221165 7.17341327,12.4791614 C4.97100102,11.3138838 3.01893163,9.80476953 1.38459286,7.98100219 C1.03783776,7.60209198 1.03783776,7.5090226 1.38459286,7.16226749 C3.52301327,4.86652055 5.78947041,3.19721443 8.30680102,2.12787158 C9.84807041,1.46646341 11.4212296,1.11992055 12.9622867,1.11992055 C14.6287276,1.11992055 16.298299,1.49861851 17.9647398,2.28519811 C20.3566867,3.38643076 22.559099,5.02384709 24.5083031,7.13016545 C24.572348,7.1944226 24.6334745,7.28743892 24.6975194,7.35169607 C24.8258214,7.51172872 24.8548459,7.66905525 24.7296745,7.79443892 M12.8982418,3.26412464 C10.4744051,3.26412464 8.49331122,5.24521851 8.49331122,7.66905525 C8.49331122,10.0930512 10.4744051,12.074145 12.8982418,12.074145 C15.3222908,12.074145 17.3033847,10.0930512 17.3033847,7.66905525 C17.3354867,5.24521851 15.3543929,3.26412464 12.8982418,3.26412464 M12.8982418,10.9408104 C11.1037112,10.9408104 9.65858878,9.4928226 9.65858878,7.70115729 C9.65858878,5.90954504 11.1065765,4.45863892 12.8982418,4.45863892 C14.6901194,4.45863892 16.1381071,5.90662668 16.1381071,7.69829198 C16.1729153,9.46087974 14.6929847,10.9408104 12.8982418,10.9408104" id="Fill-1"></path>
                </g>
            </g>
        </g>
    </g>
</svg>