<?xml version="1.0" encoding="UTF-8"?>
<svg width="24px" height="16px" viewBox="0 0 24 16" version="1.1" xmlns="http://www.w3.org/2000/svg" xmlns:xlink="http://www.w3.org/1999/xlink">
    <!-- Generator: Sketch 46.1 (44463) - http://www.bohemiancoding.com/sketch -->
    <title>Fill 1</title>
    <desc>Created with Sketch.</desc>
    <defs></defs>
    <g id="Design-Kit-v1.0" stroke="none" stroke-width="1" fill="none" fill-rule="evenodd">
        <g id="Category" transform="translate(-768.000000, -837.000000)" fill="#222222">
            <g id="Example-Main-Navigation-design01-Copy" transform="translate(631.000000, 100.000000)">
                <g id="category-5-copy" transform="translate(36.000000, 110.000000)">
                    <g id="Bottom-nav---Home-02" transform="translate(0.000000, 617.000000)">
                        <g id="ICON-SHOP" transform="translate(98.000000, 3.000000)">
                            <path d="M24.8064,21.002 L24.7974,21.002 L14.6314,21.002 L5.1994,21.002 C5.1994,21.002 5.1979,20.84 5.1979,20.64 C5.1979,20.493 5.2884,20.3795 5.4094,20.31 L14.9999,15.0265 L24.5894,20.311 L24.5894,20.311 C24.7139,20.3675 24.8019,20.493 24.8019,20.64 C24.8019,20.84 24.8064,21.002 24.8064,21.002 L24.8064,21.002 Z M26.9994,20.6625 C26.9979,19.7365 26.4649,18.936 25.6904,18.56 L15.9974,13.223 C16.0569,12.9135 16.3174,12.6595 16.5104,12.5025 C16.9489,12.119 17.5244,11.575 17.6724,10.4345 C17.6884,10.312 17.6974,10.1875 17.6974,10.0605 C17.6974,8.3705 16.3409,7 14.6679,7 C12.9944,7 11.6384,8.3705 11.6384,10.0605 L13.6199,10.0605 C13.6199,9.476 14.0889,9.002 14.6679,9.002 C15.2464,9.002 15.7154,9.476 15.7154,10.0605 C15.7154,10.4275 15.5309,10.75 15.2504,10.94 L15.2504,10.9445 C14.5879,11.43 14.0699,12.2135 14.0139,13.217 L4.3094,18.56 C3.5354,18.936 3.0019,19.7365 3.0004,20.6625 L2.9999,20.6625 L2.9999,23 L14.9999,23 L26.9999,23 L26.9999,20.6625 L26.9994,20.6625 Z" id="Fill-1"></path>
                        </g>
                    </g>
                </g>
            </g>
        </g>
    </g>
</svg>