<?xml version="1.0" encoding="UTF-8"?>
<svg width="49px" height="49px" viewBox="0 0 49 49" version="1.1" xmlns="http://www.w3.org/2000/svg" xmlns:xlink="http://www.w3.org/1999/xlink">
    <!-- Generator: Sketch 46.2 (44496) - http://www.bohemiancoding.com/sketch -->
    <title>我的</title>
    <desc>Created with Sketch.</desc>
    <defs></defs>
    <g id="Page-1" stroke="none" stroke-width="1" fill="none" fill-rule="evenodd">
        <g id="货架-copy-11" transform="translate(-673.000000, -142.000000)">
            <g id="我的" transform="translate(675.000000, 144.000000)">
                <circle id="Oval-2" fill="#FFCC22" cx="22.5" cy="22.5" r="22.5"></circle>
                <path d="M39.4753353,7.73474141 C46.9555908,16.3324851 46.8254268,29.1652136 39.1723121,37.6094712 C31.5191973,46.0537287 18.7605718,47.4421719 9.47009483,40.8417818 C0.179617842,34.2413917 -2.70806618,21.7370772 2.74753539,11.7316033 C8.20313697,1.72612935 20.2787272,-2.62000869 30.8596391,1.61374721" id="shape_拷贝_4" stroke="#221100" stroke-width="3" stroke-linecap="round"></path>
                <path d="M7,38.3924218 C9.920875,32.2388547 16.0631251,28 23.1676893,28 C30.0108513,28 35.9612104,31.9326681 39,37.7210789 C34.9208468,42.2008458 29.1190037,45 22.6816905,45 C16.5722819,45 11.035253,42.4787502 7,38.3924218 Z" id="Combined-Shape" stroke="#221100" stroke-width="3" fill="#FFCC00"></path>
                <circle id="shape-24" stroke="#221100" stroke-width="3" fill="#FFCC00" fill-rule="nonzero" cx="23" cy="20" r="11"></circle>
            </g>
        </g>
    </g>
</svg>